<svg data-v-423bf9ae="" xmlns="http://www.w3.org/2000/svg" viewBox="0 0 568 90" class="iconLeft"><!----><!----><!----><g data-v-423bf9ae="" id="29fc9c9f-01a4-4cab-8f1f-bf2592927a0f" fill="white" transform="matrix(5.7915059834320255,0,0,5.7915059834320255,169.48697537812606,14.999999523162842)"><path d="M5.57 10.36C6.93 10.36 8.15 9.80 8.99 8.90L8.33 8.32C7.63 9.04 6.65 9.49 5.57 9.49C3.37 9.49 1.65 7.66 1.65 5.42C1.65 3.18 3.37 1.34 5.57 1.34C6.65 1.34 7.64 1.79 8.33 2.52L8.99 1.93C8.15 1.04 6.93 0.48 5.57 0.48C2.87 0.48 0.73 2.69 0.73 5.42C0.73 8.15 2.87 10.36 5.57 10.36ZM10.61 10.22L11.51 10.22L11.51 0L10.61 0ZM14.20 1.90C14.59 1.90 14.90 1.64 14.90 1.27C14.90 0.90 14.59 0.63 14.20 0.63C13.83 0.63 13.51 0.90 13.51 1.27C13.51 1.64 13.83 1.90 14.20 1.90ZM13.75 10.22L14.64 10.22L14.64 3.68L13.75 3.68ZM19.89 10.35C20.83 10.35 21.66 10.01 22.25 9.45L21.69 8.85C21.24 9.25 20.62 9.49 19.92 9.49C18.49 9.49 17.33 8.47 17.33 6.94C17.33 5.40 18.49 4.40 19.92 4.40C20.62 4.40 21.24 4.65 21.69 5.05L22.25 4.44C21.66 3.89 20.83 3.54 19.89 3.54C18.03 3.54 16.44 4.87 16.44 6.94C16.44 9.02 18.03 10.35 19.89 10.35ZM29.32 10.22L25.69 6.52L28.49 3.68L27.24 3.68L24.79 6.19L24.79 0L23.90 0L23.90 10.22L24.79 10.22L24.79 6.86L28.10 10.22ZM39.49 0.57L32.42 0.57L32.42 1.44L35.49 1.44L35.49 10.22L36.41 10.22L36.41 1.44L39.49 1.44ZM42.57 3.54C41.55 3.54 40.85 4.17 40.53 5.28L40.53 3.68L39.62 3.68L39.62 10.22L40.53 10.22L40.53 7.76C40.53 6.15 41.01 4.41 42.56 4.41C42.80 4.41 43.11 4.45 43.44 4.59L43.61 3.74C43.36 3.61 42.94 3.54 42.57 3.54ZM50.01 3.68L50.01 4.94C49.52 4.06 48.51 3.54 47.40 3.54C45.57 3.54 44.09 4.96 44.09 6.94C44.09 8.93 45.58 10.36 47.40 10.36C48.50 10.36 49.52 9.84 50.01 8.95L50.01 10.22L50.90 10.22L50.90 3.68ZM47.47 9.51C46.10 9.51 44.98 8.39 44.98 6.93C44.98 5.49 46.10 4.40 47.47 4.40C48.78 4.40 50.01 5.39 50.01 6.97C50.01 8.48 48.83 9.51 47.47 9.51ZM57.78 3.68L55.51 9.13L53.27 3.68L52.32 3.68L55.05 10.22L55.97 10.22L58.74 3.68ZM66.07 6.93C66.07 4.86 64.71 3.54 62.85 3.54C61.00 3.54 59.51 4.86 59.51 6.93C59.51 9.00 61.00 10.36 62.85 10.36C64.08 10.36 65.20 9.77 65.77 8.72L65.00 8.39C64.57 9.10 63.77 9.51 62.87 9.51C61.56 9.51 60.58 8.72 60.42 7.32L66.05 7.32C66.07 7.20 66.07 7.06 66.07 6.93ZM60.44 6.55C60.61 5.15 61.56 4.40 62.85 4.40C64.12 4.40 65.06 5.19 65.18 6.55ZM67.82 10.22L68.71 10.22L68.71 0L67.82 0Z"></path></g><!----><g data-v-423bf9ae="" id="0a73fcad-9809-41ff-8752-acdd398a9628" transform="matrix(4.803586662404586,0,0,4.803586662404586,0.14261340152661717,-31.22538662899096)" stroke="none" fill="white"><path d="M16 19.586l7.496-12.954H8.504zM7.496 12.414L0 25.368h14.992zM24.504 12.414l-7.496 12.954H32z"></path></g><!----></svg>